solid AssimpScene
 facet normal 0.1024017482995987 -0.9435160756111145 0.3151054084300995
  outer loop
  vertex 0 -1 0
  vertex 0.4253230094909668 -0.8506540060043335 0.3090110123157501
  vertex -0.1624560058116913 -0.8506540060043335 0.4999949932098389
  endloop
 endfacet

 facet normal 0.7002171874046326 -0.6617162823677063 0.2680065929889679
  outer loop
  vertex 0.7236070036888123 -0.4472199976444244 0.5257250070571899
  vertex 0.4253230094909668 -0.8506540060043335 0.3090110123157501
  vertex 0.8506479859352112 -0.5257359743118286 0
  endloop
 endfacet

 facet normal -0.2680101692676544 -0.9435357451438904 0.194707378745079
  outer loop
  vertex 0 -1 0
  vertex -0.1624560058116913 -0.8506540060043335 0.4999949932098389
  vertex -0.5257300138473511 -0.8506519794464111 0
  endloop
 endfacet

 facet normal -0.2680101692676544 -0.9435357451438904 -0.194707378745079
  outer loop
  vertex 0 -1 0
  vertex -0.5257300138473511 -0.8506519794464111 0
  vertex -0.1624560058116913 -0.8506540060043335 -0.4999949932098389
  endloop
 endfacet

 facet normal 0.1024017482995987 -0.9435160756111145 -0.3151054084300995
  outer loop
  vertex 0 -1 0
  vertex -0.1624560058116913 -0.8506540060043335 -0.4999949932098389
  vertex 0.4253230094909668 -0.8506540060043335 -0.3090110123157501
  endloop
 endfacet

 facet normal 0.9049940705299377 -0.3303978443145752 0.2679982483386993
  outer loop
  vertex 0.7236070036888123 -0.4472199976444244 0.5257250070571899
  vertex 0.8506479859352112 -0.5257359743118286 0
  vertex 0.9510579705238342 0 0.3090130090713501
  endloop
 endfacet

 facet normal 0.02470041438937187 -0.3304055333137512 0.9435157775878906
  outer loop
  vertex -0.2763879895210266 -0.4472199976444244 0.8506489992141724
  vertex 0.2628690004348755 -0.525738000869751 0.8090119957923889
  vertex 0 0 1
  endloop
 endfacet

 facet normal -0.8896918892860413 -0.330396980047226 0.3150971233844757
  outer loop
  vertex -0.8944259881973267 -0.4472160041332245 0
  vertex -0.6881890296936035 -0.5257359743118286 0.4999969899654388
  vertex -0.9510579705238342 0 0.3090130090713501
  endloop
 endfacet

 facet normal -0.5745911598205566 -0.3303949236869812 -0.7487884759902954
  outer loop
  vertex -0.2763879895210266 -0.4472199976444244 -0.8506489992141724
  vertex -0.6881890296936035 -0.5257359743118286 -0.4999969899654388
  vertex -0.5877860188484192 0 -0.80901700258255
  endloop
 endfacet

 facet normal 0.5345759987831116 -0.330385148525238 -0.7778650522232056
  outer loop
  vertex 0.7236070036888123 -0.4472199976444244 -0.5257250070571899
  vertex 0.2628690004348755 -0.525738000869751 -0.8090119957923889
  vertex 0.5877860188484192 0 -0.80901700258255
  endloop
 endfacet

 facet normal 0.8026210069656372 -0.1256032735109329 0.5831152200698853
  outer loop
  vertex 0.7236070036888123 -0.4472199976444244 0.5257250070571899
  vertex 0.9510579705238342 0 0.3090130090713501
  vertex 0.5877860188484192 0 0.80901700258255
  endloop
 endfacet

 facet normal -0.3066044449806213 -0.1256018131971359 0.9435136318206787
  outer loop
  vertex -0.2763879895210266 -0.4472199976444244 0.8506489992141724
  vertex 0 0 1
  vertex -0.5877860188484192 0 0.80901700258255
  endloop
 endfacet

 facet normal -0.992081344127655 -0.1255976408720016 0
  outer loop
  vertex -0.8944259881973267 -0.4472160041332245 0
  vertex -0.9510579705238342 0 0.3090130090713501
  vertex -0.9510579705238342 0 -0.3090130090713501
  endloop
 endfacet

 facet normal -0.3066044449806213 -0.1256018131971359 -0.9435136318206787
  outer loop
  vertex -0.2763879895210266 -0.4472199976444244 -0.8506489992141724
  vertex -0.5877860188484192 0 -0.80901700258255
  vertex 0 0 -1
  endloop
 endfacet

 facet normal 0.8026210069656372 -0.1256032735109329 -0.5831152200698853
  outer loop
  vertex 0.7236070036888123 -0.4472199976444244 -0.5257250070571899
  vertex 0.5877860188484192 0 -0.80901700258255
  vertex 0.9510579705238342 0 -0.3090130090713501
  endloop
 endfacet

 facet normal 0.4089137315750122 0.6617222428321838 0.6284211277961731
  outer loop
  vertex 0.2763879895210266 0.4472199976444244 0.8506489992141724
  vertex 0.6881890296936035 0.5257359743118286 0.4999969899654388
  vertex 0.1624560058116913 0.8506540060043335 0.4999949932098389
  endloop
 endfacet

 facet normal -0.4713055789470673 0.6617078185081482 0.5831069350242615
  outer loop
  vertex -0.7236070036888123 0.4472199976444244 0.5257250070571899
  vertex -0.2628690004348755 0.525738000869751 0.8090119957923889
  vertex -0.4253230094909668 0.8506540060043335 0.3090110123157501
  endloop
 endfacet

 facet normal -0.7002171874046326 0.6617162823677063 -0.2680065929889679
  outer loop
  vertex -0.7236070036888123 0.4472199976444244 -0.5257250070571899
  vertex -0.8506479859352112 0.5257359743118286 0
  vertex -0.4253230094909668 0.8506540060043335 -0.3090110123157501
  endloop
 endfacet

 facet normal 0.03849941492080688 0.6616899371147156 -0.7487885355949402
  outer loop
  vertex 0.2763879895210266 0.4472199976444244 -0.8506489992141724
  vertex -0.2628690004348755 0.525738000869751 -0.8090119957923889
  vertex 0.1624560058116913 0.8506540060043335 -0.4999949932098389
  endloop
 endfacet

 facet normal 0.7240249514579773 0.6617228388786316 -0.1947067230939865
  outer loop
  vertex 0.8944259881973267 0.4472160041332245 0
  vertex 0.6881890296936035 0.5257359743118286 -0.4999969899654388
  vertex 0.5257300138473511 0.8506519794464111 0
  endloop
 endfacet

 facet normal 0.2680101692676544 0.9435357451438904 -0.194707378745079
  outer loop
  vertex 0.5257300138473511 0.8506519794464111 0
  vertex 0.1624560058116913 0.8506540060043335 -0.4999949932098389
  vertex 0 1 0
  endloop
 endfacet

 facet normal 0.4910917580127716 0.7946866750717163 -0.3567940294742584
  outer loop
  vertex 0.5257300138473511 0.8506519794464111 0
  vertex 0.6881890296936035 0.5257359743118286 -0.4999969899654388
  vertex 0.1624560058116913 0.8506540060043335 -0.4999949932098389
  endloop
 endfacet

 facet normal 0.4089137315750122 0.6617222428321838 -0.6284211277961731
  outer loop
  vertex 0.6881890296936035 0.5257359743118286 -0.4999969899654388
  vertex 0.2763879895210266 0.4472199976444244 -0.8506489992141724
  vertex 0.1624560058116913 0.8506540060043335 -0.4999949932098389
  endloop
 endfacet

 facet normal -0.1024017482995987 0.9435160756111145 -0.3151054084300995
  outer loop
  vertex 0.1624560058116913 0.8506540060043335 -0.4999949932098389
  vertex -0.4253230094909668 0.8506540060043335 -0.3090110123157501
  vertex 0 1 0
  endloop
 endfacet

 facet normal -0.187598392367363 0.7946931719779968 -0.5772950649261475
  outer loop
  vertex 0.1624560058116913 0.8506540060043335 -0.4999949932098389
  vertex -0.2628690004348755 0.525738000869751 -0.8090119957923889
  vertex -0.4253230094909668 0.8506540060043335 -0.3090110123157501
  endloop
 endfacet

 facet normal -0.4713055789470673 0.6617078185081482 -0.5831069350242615
  outer loop
  vertex -0.2628690004348755 0.525738000869751 -0.8090119957923889
  vertex -0.7236070036888123 0.4472199976444244 -0.5257250070571899
  vertex -0.4253230094909668 0.8506540060043335 -0.3090110123157501
  endloop
 endfacet

 facet normal -0.3313079476356506 0.9435226917266846 0
  outer loop
  vertex -0.4253230094909668 0.8506540060043335 -0.3090110123157501
  vertex -0.4253230094909668 0.8506540060043335 0.3090110123157501
  vertex 0 1 0
  endloop
 endfacet

 facet normal -0.6070640683174133 0.7946529388427734 0
  outer loop
  vertex -0.4253230094909668 0.8506540060043335 -0.3090110123157501
  vertex -0.8506479859352112 0.5257359743118286 0
  vertex -0.4253230094909668 0.8506540060043335 0.3090110123157501
  endloop
 endfacet

 facet normal -0.7002171874046326 0.6617162823677063 0.2680065929889679
  outer loop
  vertex -0.8506479859352112 0.5257359743118286 0
  vertex -0.7236070036888123 0.4472199976444244 0.5257250070571899
  vertex -0.4253230094909668 0.8506540060043335 0.3090110123157501
  endloop
 endfacet

 facet normal -0.1024017482995987 0.9435160756111145 0.3151054084300995
  outer loop
  vertex -0.4253230094909668 0.8506540060043335 0.3090110123157501
  vertex 0.1624560058116913 0.8506540060043335 0.4999949932098389
  vertex 0 1 0
  endloop
 endfacet

 facet normal -0.187598392367363 0.7946931719779968 0.5772950649261475
  outer loop
  vertex -0.4253230094909668 0.8506540060043335 0.3090110123157501
  vertex -0.2628690004348755 0.525738000869751 0.8090119957923889
  vertex 0.1624560058116913 0.8506540060043335 0.4999949932098389
  endloop
 endfacet

 facet normal 0.03849941492080688 0.6616899371147156 0.7487885355949402
  outer loop
  vertex -0.2628690004348755 0.525738000869751 0.8090119957923889
  vertex 0.2763879895210266 0.4472199976444244 0.8506489992141724
  vertex 0.1624560058116913 0.8506540060043335 0.4999949932098389
  endloop
 endfacet

 facet normal 0.2680101692676544 0.9435357451438904 0.194707378745079
  outer loop
  vertex 0.1624560058116913 0.8506540060043335 0.4999949932098389
  vertex 0.5257300138473511 0.8506519794464111 0
  vertex 0 1 0
  endloop
 endfacet

 facet normal 0.4910917580127716 0.7946866750717163 0.3567940294742584
  outer loop
  vertex 0.1624560058116913 0.8506540060043335 0.4999949932098389
  vertex 0.6881890296936035 0.5257359743118286 0.4999969899654388
  vertex 0.5257300138473511 0.8506519794464111 0
  endloop
 endfacet

 facet normal 0.7240249514579773 0.6617228388786316 0.1947067230939865
  outer loop
  vertex 0.6881890296936035 0.5257359743118286 0.4999969899654388
  vertex 0.8944259881973267 0.4472160041332245 0
  vertex 0.5257300138473511 0.8506519794464111 0
  endloop
 endfacet

 facet normal 0.8896918892860413 0.330396980047226 -0.3150971233844757
  outer loop
  vertex 0.9510579705238342 0 -0.3090130090713501
  vertex 0.6881890296936035 0.5257359743118286 -0.4999969899654388
  vertex 0.8944259881973267 0.4472160041332245 0
  endloop
 endfacet

 facet normal 0.7946931719779968 0.187598392367363 -0.5772950649261475
  outer loop
  vertex 0.9510579705238342 0 -0.3090130090713501
  vertex 0.5877860188484192 0 -0.80901700258255
  vertex 0.6881890296936035 0.5257359743118286 -0.4999969899654388
  endloop
 endfacet

 facet normal 0.5745911598205566 0.3303949236869812 -0.7487884759902954
  outer loop
  vertex 0.5877860188484192 0 -0.80901700258255
  vertex 0.2763879895210266 0.4472199976444244 -0.8506489992141724
  vertex 0.6881890296936035 0.5257359743118286 -0.4999969899654388
  endloop
 endfacet

 facet normal -0.02470041438937187 0.3304055333137512 -0.9435157775878906
  outer loop
  vertex 0 0 -1
  vertex -0.2628690004348755 0.525738000869751 -0.8090119957923889
  vertex 0.2763879895210266 0.4472199976444244 -0.8506489992141724
  endloop
 endfacet

 facet normal -0.3034946024417877 0.1875966638326645 -0.9341833591461182
  outer loop
  vertex 0 0 -1
  vertex -0.5877860188484192 0 -0.80901700258255
  vertex -0.2628690004348755 0.525738000869751 -0.8090119957923889
  endloop
 endfacet

 facet normal -0.5345759987831116 0.330385148525238 -0.7778650522232056
  outer loop
  vertex -0.5877860188484192 0 -0.80901700258255
  vertex -0.7236070036888123 0.4472199976444244 -0.5257250070571899
  vertex -0.2628690004348755 0.525738000869751 -0.8090119957923889
  endloop
 endfacet

 facet normal -0.9049940705299377 0.3303978443145752 -0.2679982483386993
  outer loop
  vertex -0.9510579705238342 0 -0.3090130090713501
  vertex -0.8506479859352112 0.5257359743118286 0
  vertex -0.7236070036888123 0.4472199976444244 -0.5257250070571899
  endloop
 endfacet

 facet normal -0.9822439551353455 0.187608391046524 0
  outer loop
  vertex -0.9510579705238342 0 -0.3090130090713501
  vertex -0.9510579705238342 0 0.3090130090713501
  vertex -0.8506479859352112 0.5257359743118286 0
  endloop
 endfacet

 facet normal -0.9049940705299377 0.3303978443145752 0.2679982483386993
  outer loop
  vertex -0.9510579705238342 0 0.3090130090713501
  vertex -0.7236070036888123 0.4472199976444244 0.5257250070571899
  vertex -0.8506479859352112 0.5257359743118286 0
  endloop
 endfacet

 facet normal -0.5345759987831116 0.330385148525238 0.7778650522232056
  outer loop
  vertex -0.5877860188484192 0 0.80901700258255
  vertex -0.2628690004348755 0.525738000869751 0.8090119957923889
  vertex -0.7236070036888123 0.4472199976444244 0.5257250070571899
  endloop
 endfacet

 facet normal -0.3034946024417877 0.1875966638326645 0.9341833591461182
  outer loop
  vertex -0.5877860188484192 0 0.80901700258255
  vertex 0 0 1
  vertex -0.2628690004348755 0.525738000869751 0.8090119957923889
  endloop
 endfacet

 facet normal -0.02470041438937187 0.3304055333137512 0.9435157775878906
  outer loop
  vertex 0 0 1
  vertex 0.2763879895210266 0.4472199976444244 0.8506489992141724
  vertex -0.2628690004348755 0.525738000869751 0.8090119957923889
  endloop
 endfacet

 facet normal 0.5745911598205566 0.3303949236869812 0.7487884759902954
  outer loop
  vertex 0.5877860188484192 0 0.80901700258255
  vertex 0.6881890296936035 0.5257359743118286 0.4999969899654388
  vertex 0.2763879895210266 0.4472199976444244 0.8506489992141724
  endloop
 endfacet

 facet normal 0.7946931719779968 0.187598392367363 0.5772950649261475
  outer loop
  vertex 0.5877860188484192 0 0.80901700258255
  vertex 0.9510579705238342 0 0.3090130090713501
  vertex 0.6881890296936035 0.5257359743118286 0.4999969899654388
  endloop
 endfacet

 facet normal 0.8896918892860413 0.330396980047226 0.3150971233844757
  outer loop
  vertex 0.9510579705238342 0 0.3090130090713501
  vertex 0.8944259881973267 0.4472160041332245 0
  vertex 0.6881890296936035 0.5257359743118286 0.4999969899654388
  endloop
 endfacet

 facet normal 0.3066044449806213 0.1256018131971359 -0.9435136318206787
  outer loop
  vertex 0.5877860188484192 0 -0.80901700258255
  vertex 0 0 -1
  vertex 0.2763879895210266 0.4472199976444244 -0.8506489992141724
  endloop
 endfacet

 facet normal 0.3034946024417877 -0.1875966638326645 -0.9341833591461182
  outer loop
  vertex 0.5877860188484192 0 -0.80901700258255
  vertex 0.2628690004348755 -0.525738000869751 -0.8090119957923889
  vertex 0 0 -1
  endloop
 endfacet

 facet normal 0.02470041438937187 -0.3304055333137512 -0.9435157775878906
  outer loop
  vertex 0.2628690004348755 -0.525738000869751 -0.8090119957923889
  vertex -0.2763879895210266 -0.4472199976444244 -0.8506489992141724
  vertex 0 0 -1
  endloop
 endfacet

 facet normal -0.8026210069656372 0.1256032735109329 -0.5831152200698853
  outer loop
  vertex -0.5877860188484192 0 -0.80901700258255
  vertex -0.9510579705238342 0 -0.3090130090713501
  vertex -0.7236070036888123 0.4472199976444244 -0.5257250070571899
  endloop
 endfacet

 facet normal -0.7946931719779968 -0.187598392367363 -0.5772950649261475
  outer loop
  vertex -0.5877860188484192 0 -0.80901700258255
  vertex -0.6881890296936035 -0.5257359743118286 -0.4999969899654388
  vertex -0.9510579705238342 0 -0.3090130090713501
  endloop
 endfacet

 facet normal -0.8896918892860413 -0.330396980047226 -0.3150971233844757
  outer loop
  vertex -0.6881890296936035 -0.5257359743118286 -0.4999969899654388
  vertex -0.8944259881973267 -0.4472160041332245 0
  vertex -0.9510579705238342 0 -0.3090130090713501
  endloop
 endfacet

 facet normal -0.8026210069656372 0.1256032735109329 0.5831152200698853
  outer loop
  vertex -0.9510579705238342 0 0.3090130090713501
  vertex -0.5877860188484192 0 0.80901700258255
  vertex -0.7236070036888123 0.4472199976444244 0.5257250070571899
  endloop
 endfacet

 facet normal -0.7946931719779968 -0.187598392367363 0.5772950649261475
  outer loop
  vertex -0.9510579705238342 0 0.3090130090713501
  vertex -0.6881890296936035 -0.5257359743118286 0.4999969899654388
  vertex -0.5877860188484192 0 0.80901700258255
  endloop
 endfacet

 facet normal -0.5745911598205566 -0.3303949236869812 0.7487884759902954
  outer loop
  vertex -0.6881890296936035 -0.5257359743118286 0.4999969899654388
  vertex -0.2763879895210266 -0.4472199976444244 0.8506489992141724
  vertex -0.5877860188484192 0 0.80901700258255
  endloop
 endfacet

 facet normal 0.3066044449806213 0.1256018131971359 0.9435136318206787
  outer loop
  vertex 0 0 1
  vertex 0.5877860188484192 0 0.80901700258255
  vertex 0.2763879895210266 0.4472199976444244 0.8506489992141724
  endloop
 endfacet

 facet normal 0.3034946024417877 -0.1875966638326645 0.9341833591461182
  outer loop
  vertex 0 0 1
  vertex 0.2628690004348755 -0.525738000869751 0.8090119957923889
  vertex 0.5877860188484192 0 0.80901700258255
  endloop
 endfacet

 facet normal 0.5345759987831116 -0.330385148525238 0.7778650522232056
  outer loop
  vertex 0.2628690004348755 -0.525738000869751 0.8090119957923889
  vertex 0.7236070036888123 -0.4472199976444244 0.5257250070571899
  vertex 0.5877860188484192 0 0.80901700258255
  endloop
 endfacet

 facet normal 0.992081344127655 0.1255976408720016 0
  outer loop
  vertex 0.9510579705238342 0 0.3090130090713501
  vertex 0.9510579705238342 0 -0.3090130090713501
  vertex 0.8944259881973267 0.4472160041332245 0
  endloop
 endfacet

 facet normal 0.9822439551353455 -0.187608391046524 0
  outer loop
  vertex 0.9510579705238342 0 0.3090130090713501
  vertex 0.8506479859352112 -0.5257359743118286 0
  vertex 0.9510579705238342 0 -0.3090130090713501
  endloop
 endfacet

 facet normal 0.9049940705299377 -0.3303978443145752 -0.2679982483386993
  outer loop
  vertex 0.8506479859352112 -0.5257359743118286 0
  vertex 0.7236070036888123 -0.4472199976444244 -0.5257250070571899
  vertex 0.9510579705238342 0 -0.3090130090713501
  endloop
 endfacet

 facet normal 0.4713055789470673 -0.6617078185081482 -0.5831069350242615
  outer loop
  vertex 0.4253230094909668 -0.8506540060043335 -0.3090110123157501
  vertex 0.2628690004348755 -0.525738000869751 -0.8090119957923889
  vertex 0.7236070036888123 -0.4472199976444244 -0.5257250070571899
  endloop
 endfacet

 facet normal 0.187598392367363 -0.7946931719779968 -0.5772950649261475
  outer loop
  vertex 0.4253230094909668 -0.8506540060043335 -0.3090110123157501
  vertex -0.1624560058116913 -0.8506540060043335 -0.4999949932098389
  vertex 0.2628690004348755 -0.525738000869751 -0.8090119957923889
  endloop
 endfacet

 facet normal -0.03849941492080688 -0.6616899371147156 -0.7487885355949402
  outer loop
  vertex -0.1624560058116913 -0.8506540060043335 -0.4999949932098389
  vertex -0.2763879895210266 -0.4472199976444244 -0.8506489992141724
  vertex 0.2628690004348755 -0.525738000869751 -0.8090119957923889
  endloop
 endfacet

 facet normal -0.4089137315750122 -0.6617222428321838 -0.6284211277961731
  outer loop
  vertex -0.1624560058116913 -0.8506540060043335 -0.4999949932098389
  vertex -0.6881890296936035 -0.5257359743118286 -0.4999969899654388
  vertex -0.2763879895210266 -0.4472199976444244 -0.8506489992141724
  endloop
 endfacet

 facet normal -0.4910917580127716 -0.7946866750717163 -0.3567940294742584
  outer loop
  vertex -0.1624560058116913 -0.8506540060043335 -0.4999949932098389
  vertex -0.5257300138473511 -0.8506519794464111 0
  vertex -0.6881890296936035 -0.5257359743118286 -0.4999969899654388
  endloop
 endfacet

 facet normal -0.7240249514579773 -0.6617228388786316 -0.1947067230939865
  outer loop
  vertex -0.5257300138473511 -0.8506519794464111 0
  vertex -0.8944259881973267 -0.4472160041332245 0
  vertex -0.6881890296936035 -0.5257359743118286 -0.4999969899654388
  endloop
 endfacet

 facet normal -0.7240249514579773 -0.6617228388786316 0.1947067230939865
  outer loop
  vertex -0.5257300138473511 -0.8506519794464111 0
  vertex -0.6881890296936035 -0.5257359743118286 0.4999969899654388
  vertex -0.8944259881973267 -0.4472160041332245 0
  endloop
 endfacet

 facet normal -0.4910917580127716 -0.7946866750717163 0.3567940294742584
  outer loop
  vertex -0.5257300138473511 -0.8506519794464111 0
  vertex -0.1624560058116913 -0.8506540060043335 0.4999949932098389
  vertex -0.6881890296936035 -0.5257359743118286 0.4999969899654388
  endloop
 endfacet

 facet normal -0.4089137315750122 -0.6617222428321838 0.6284211277961731
  outer loop
  vertex -0.1624560058116913 -0.8506540060043335 0.4999949932098389
  vertex -0.2763879895210266 -0.4472199976444244 0.8506489992141724
  vertex -0.6881890296936035 -0.5257359743118286 0.4999969899654388
  endloop
 endfacet

 facet normal 0.7002171874046326 -0.6617162823677063 -0.2680065929889679
  outer loop
  vertex 0.8506479859352112 -0.5257359743118286 0
  vertex 0.4253230094909668 -0.8506540060043335 -0.3090110123157501
  vertex 0.7236070036888123 -0.4472199976444244 -0.5257250070571899
  endloop
 endfacet

 facet normal 0.6070640683174133 -0.7946529388427734 0
  outer loop
  vertex 0.8506479859352112 -0.5257359743118286 0
  vertex 0.4253230094909668 -0.8506540060043335 0.3090110123157501
  vertex 0.4253230094909668 -0.8506540060043335 -0.3090110123157501
  endloop
 endfacet

 facet normal 0.3313079476356506 -0.9435226917266846 0
  outer loop
  vertex 0.4253230094909668 -0.8506540060043335 0.3090110123157501
  vertex 0 -1 0
  vertex 0.4253230094909668 -0.8506540060043335 -0.3090110123157501
  endloop
 endfacet

 facet normal -0.03849941492080688 -0.6616899371147156 0.7487885355949402
  outer loop
  vertex -0.1624560058116913 -0.8506540060043335 0.4999949932098389
  vertex 0.2628690004348755 -0.525738000869751 0.8090119957923889
  vertex -0.2763879895210266 -0.4472199976444244 0.8506489992141724
  endloop
 endfacet

 facet normal 0.187598392367363 -0.7946931719779968 0.5772950649261475
  outer loop
  vertex -0.1624560058116913 -0.8506540060043335 0.4999949932098389
  vertex 0.4253230094909668 -0.8506540060043335 0.3090110123157501
  vertex 0.2628690004348755 -0.525738000869751 0.8090119957923889
  endloop
 endfacet

 facet normal 0.4713055789470673 -0.6617078185081482 0.5831069350242615
  outer loop
  vertex 0.4253230094909668 -0.8506540060043335 0.3090110123157501
  vertex 0.7236070036888123 -0.4472199976444244 0.5257250070571899
  vertex 0.2628690004348755 -0.525738000869751 0.8090119957923889
  endloop
 endfacet

endsolid AssimpScene
